<?xml version="1.0" encoding="UTF-8" standalone="no"?>
<!-- Created with Inkscape (http://www.inkscape.org/) -->

<svg
   width="16"
   height="18"
   viewBox="0 0 4.2333332 4.7625001"
   version="1.1"
   id="svg17690"
   inkscape:version="1.1.1 (3bf5ae0d25, 2021-09-20)"
   sodipodi:docname="ctx-dataset-icon.svg"
   xmlns:inkscape="http://www.inkscape.org/namespaces/inkscape"
   xmlns:sodipodi="http://sodipodi.sourceforge.net/DTD/sodipodi-0.dtd"
   xmlns="http://www.w3.org/2000/svg"
   xmlns:svg="http://www.w3.org/2000/svg">
  <sodipodi:namedview
     id="namedview17692"
     pagecolor="#ffffff"
     bordercolor="#666666"
     borderopacity="1.0"
     inkscape:pageshadow="2"
     inkscape:pageopacity="0.0"
     inkscape:pagecheckerboard="0"
     inkscape:document-units="px"
     showgrid="false"
     units="px"
     width="24px"
     showguides="true"
     inkscape:guide-bbox="true"
     inkscape:zoom="16"
     inkscape:cx="0.21875"
     inkscape:cy="15.53125"
     inkscape:window-width="1920"
     inkscape:window-height="1017"
     inkscape:window-x="-8"
     inkscape:window-y="-8"
     inkscape:window-maximized="1"
     inkscape:current-layer="g18107"
     inkscape:snap-global="false">
    <sodipodi:guide
       position="8.0697917,7.176823"
       orientation="0,-1"
       id="guide18050" />
    <sodipodi:guide
       position="1.4967093,0.38654867"
       orientation="0,-1"
       id="guide18052" />
  </sodipodi:namedview>
  <defs
     id="defs17687" />
  <g
     inkscape:label="Layer 1"
     inkscape:groupmode="layer"
     id="layer1">
    <g
       id="g17649"
       transform="matrix(0.076129,0,0,0.076129,-41.900627,-7.0858185)">
      <g
         id="g18107"
         transform="matrix(0.97402564,0,0,0.97402564,-71.530905,-39.843528)"
         style="stroke-width:2.14088;stroke-miterlimit:4;stroke-dasharray:none">
        <path
           d="m 685.5486,144.21413 c 0,0.46536 -0.31187,1.12843 -1.40374,1.9182 -1.06596,0.77096 -2.68186,1.51263 -4.78144,2.15492 -4.18493,1.28028 -10.03562,2.08924 -16.54763,2.08924 -6.51184,0 -12.3625,-0.80896 -16.54751,-2.08924 -2.09954,-0.64229 -3.71549,-1.38396 -4.78142,-2.15492 -1.09194,-0.78977 -1.40374,-1.45284 -1.40374,-1.9182 0,-0.46535 0.3118,-1.12842 1.40374,-1.9182 1.06593,-0.77097 2.68188,-1.51262 4.78142,-2.15491 4.18501,-1.2803 10.03567,-2.08925 16.54751,-2.08925 6.51201,0 12.3627,0.80895 16.54763,2.08925 2.09958,0.64229 3.71548,1.38394 4.78144,2.15491 1.09187,0.78978 1.40374,1.45285 1.40374,1.9182 z"
           stroke="#ffffff"
           stroke-width="2.28236"
           id="path2"
           style="fill:none" />
        <path
           d="m 686.68978,148.38835 v 32.34254 c 0,3.54221 -5.96846,5.35586 -10.94216,6.24452 0.28392,-0.83863 0.50686,-1.70629 0.66644,-2.59275 6.23704,-1.21732 8.28623,-3.0432 8.28623,-3.65177 v -8.99559 c -2.1288,1.52151 -5.6303,2.43445 -8.83344,3.05526 -0.23719,-0.7981 -0.52659,-1.57136 -0.86529,-2.31267 7.33129,-1.2416 9.69873,-3.25008 9.69873,-3.91963 v -8.97111 c -4.46648,3.1648 -15.42854,4.10203 -21.8845,4.10203 -6.45579,0 -17.41794,-0.93723 -21.88434,-4.10203 v 8.97111 c 0,0.66955 2.36749,2.67803 9.69877,3.91963 -0.33873,0.74131 -0.62814,1.51457 -0.86544,2.31267 -3.20308,-0.58429 -6.70459,-1.53375 -8.83333,-3.05526 v 8.99559 c 0,0.32866 0.99474,1.80141 5.96846,3.11605 0.74606,0.20706 1.53192,0.37741 2.35755,0.54777 0.15498,0.88245 0.36448,1.7492 0.6267,2.59276 -1.21359,-0.21911 -2.3675,-0.47474 -3.43188,-0.75465 -5.06327,-1.35115 -7.51034,-3.15275 -7.51034,-5.50193 v -32.34254 c 0.61902,0.56835 1.28599,1.05396 1.98951,1.44853 v 6.54876 c 0,1.65553 7.72917,4.86908 21.88434,4.86908 14.15535,0 21.8845,-3.21355 21.8845,-4.86908 v -6.54876 c 0.70352,-0.39457 1.37051,-0.88018 1.98949,-1.44853 z"
           fill="#ffffff"
           id="path4"
           style="stroke-width:3.909" />
        <path
           d="m 664.01539,166.12472 c -2.88909,0 -5.71319,0.85671 -8.11533,2.46184 -2.40211,1.60495 -4.27434,3.88622 -5.37991,6.5553 -1.10559,2.66925 -1.39485,5.60619 -0.83124,8.4396 0.56362,2.83359 1.95482,5.4362 3.99765,7.47918 2.04284,2.04281 4.64558,3.43395 7.47899,3.9976 2.83359,0.56365 5.77053,0.27425 8.4396,-0.83132 2.66908,-1.10558 4.95052,-2.97766 6.55548,-5.37979 1.60513,-2.40214 2.46184,-5.22623 2.46184,-8.11533 0,-3.87398 -1.53904,-7.58929 -4.27841,-10.32866 -2.73938,-2.73938 -6.45469,-4.27842 -10.32867,-4.27842 z m 8.10693,10.65094 -10.95531,9.73817 c -0.22203,0.19574 -0.50759,0.30383 -0.80339,0.30419 h -0.12178 c -0.16799,-0.0175 -0.33067,-0.0699 -0.47729,-0.15374 -0.14662,-0.0838 -0.27443,-0.19719 -0.37485,-0.33304 l -3.65172,-4.86908 c -0.19371,-0.25819 -0.27688,-0.58283 -0.23123,-0.90254 0.0457,-0.31953 0.2164,-0.60784 0.47468,-0.80156 0.25825,-0.19373 0.58289,-0.27699 0.90242,-0.23134 0.31972,0.0459 0.60802,0.21655 0.80175,0.47472 l 2.86061,3.81008 9.96933,-8.86175 c 0.1185,-0.11375 0.25873,-0.20231 0.41247,-0.26055 0.15374,-0.0581 0.31752,-0.0845 0.48167,-0.0776 0.16414,0.007 0.32537,0.0469 0.47363,0.11777 0.14827,0.0707 0.28064,0.1709 0.38928,0.29415 0.10846,0.12343 0.19099,0.26749 0.24229,0.4236 0.0513,0.15593 0.0707,0.32081 0.0566,0.48459 -0.0141,0.16379 -0.061,0.323 -0.13822,0.46798 -0.0772,0.14497 -0.18314,0.27297 -0.31095,0.37595 z"
           fill="#ffffff"
           id="path6"
           style="stroke-width:3.909" />
      </g>
    </g>
  </g>
</svg>
