<?xml version="1.0" encoding="UTF-8" standalone="no"?>
<svg
   width="27"
   height="33"
   viewBox="0 0 27 33"
   fill="none"
   version="1.1"
   id="svg8"
   sodipodi:docname="dataset-icon-small.svg"
   inkscape:version="1.1.1 (3bf5ae0d25, 2021-09-20)"
   xmlns:inkscape="http://www.inkscape.org/namespaces/inkscape"
   xmlns:sodipodi="http://sodipodi.sourceforge.net/DTD/sodipodi-0.dtd"
   xmlns="http://www.w3.org/2000/svg"
   xmlns:svg="http://www.w3.org/2000/svg">
  <defs
     id="defs12" />
  <sodipodi:namedview
     id="namedview10"
     pagecolor="#ffffff"
     bordercolor="#666666"
     borderopacity="1.0"
     inkscape:pageshadow="2"
     inkscape:pageopacity="0.0"
     inkscape:pagecheckerboard="0"
     showgrid="false"
     inkscape:zoom="1"
     inkscape:cx="13.5"
     inkscape:cy="16.5"
     inkscape:window-width="1920"
     inkscape:window-height="1017"
     inkscape:window-x="-8"
     inkscape:window-y="-8"
     inkscape:window-maximized="1"
     inkscape:current-layer="svg8" />
  <path
     d="M26.068 4.02441C26.068 4.27928 25.8972 4.64243 25.2992 5.07497C24.7154 5.49721 23.8304 5.90341 22.6805 6.25518C20.3885 6.95636 17.1842 7.39941 13.6177 7.39941C10.0513 7.39941 6.84701 6.95636 4.55497 6.25518C3.40509 5.90341 2.52007 5.49721 1.93628 5.07497C1.33825 4.64243 1.16748 4.27928 1.16748 4.02441C1.16748 3.76955 1.33825 3.4064 1.93628 2.97385C2.52007 2.55161 3.40509 2.14542 4.55497 1.79365C6.84701 1.09246 10.0513 0.649414 13.6177 0.649414C17.1842 0.649414 20.3885 1.09246 22.6805 1.79365C23.8304 2.14542 24.7154 2.55161 25.2992 2.97385C25.8972 3.4064 26.068 3.76955 26.068 4.02441Z"
     stroke="white"
     stroke-width="1.25"
     id="path2"
     style="stroke:#383e49;stroke-opacity:1" />
  <path
     d="M26.693 6.31055V24.0239C26.693 25.9639 23.4242 26.9572 20.7002 27.4439C20.8557 26.9846 20.9778 26.5094 21.0652 26.0239C24.4811 25.3572 25.6034 24.3572 25.6034 24.0239V19.0972C24.4375 19.9305 22.5198 20.4305 20.7655 20.7705C20.6356 20.3334 20.4771 19.9099 20.2916 19.5039C24.3068 18.8239 25.6034 17.7239 25.6034 17.3572V12.4439C23.1572 14.1772 17.1535 14.6905 13.6177 14.6905C10.082 14.6905 4.07825 14.1772 1.63209 12.4439V17.3572C1.63209 17.7239 2.92872 18.8239 6.94391 19.5039C6.7584 19.9099 6.59989 20.3334 6.46993 20.7705C4.71567 20.4505 2.79796 19.9305 1.63209 19.0972V24.0239C1.63209 24.2039 2.17689 25.0105 4.9009 25.7305C5.3095 25.8439 5.7399 25.9372 6.19208 26.0305C6.27696 26.5138 6.3917 26.9885 6.53531 27.4505C5.87065 27.3305 5.23868 27.1905 4.65574 27.0372C1.88269 26.2972 0.54248 25.3105 0.54248 24.0239V6.31055C0.881505 6.62182 1.24679 6.88778 1.63209 7.10388V10.6905C1.63209 11.5972 5.8652 13.3572 13.6177 13.3572C21.3703 13.3572 25.6034 11.5972 25.6034 10.6905V7.10388C25.9887 6.88778 26.354 6.62182 26.693 6.31055Z"
     fill="white"
     id="path4"
     style="fill:#383e49;fill-opacity:1" />
  <path
     d="M14.2747 16.0244C12.6924 16.0244 11.1457 16.4936 9.8301 17.3727C8.51451 18.2517 7.48913 19.5011 6.88363 20.9629C6.27812 22.4248 6.1197 24.0333 6.42838 25.5851C6.73706 27.137 7.49899 28.5624 8.61781 29.6813C9.73663 30.8001 11.1621 31.562 12.7139 31.8707C14.2658 32.1794 15.8743 32.0209 17.3361 31.4154C18.7979 30.8099 20.0474 29.7846 20.9264 28.469C21.8055 27.1534 22.2747 25.6067 22.2747 24.0244C22.2747 21.9027 21.4318 19.8679 19.9315 18.3676C18.4312 16.8673 16.3964 16.0244 14.2747 16.0244ZM18.7147 21.8577L12.7147 27.1911C12.5931 27.2983 12.4367 27.3575 12.2747 27.3577H12.208C12.116 27.3481 12.0269 27.3194 11.9466 27.2735C11.8663 27.2276 11.7963 27.1655 11.7413 27.0911L9.74133 24.4244C9.63524 24.283 9.58969 24.1052 9.61469 23.9301C9.6397 23.7551 9.73321 23.5972 9.87466 23.4911C10.0161 23.385 10.1939 23.3394 10.3689 23.3644C10.544 23.3895 10.7019 23.483 10.808 23.6244L12.3747 25.7111L17.8347 20.8577C17.8996 20.7954 17.9764 20.7469 18.0606 20.715C18.1448 20.6832 18.2345 20.6687 18.3244 20.6725C18.4143 20.6762 18.5026 20.6982 18.5838 20.737C18.665 20.7757 18.7375 20.8306 18.797 20.8981C18.8564 20.9657 18.9016 21.0446 18.9297 21.1301C18.9578 21.2155 18.9684 21.3058 18.9607 21.3955C18.953 21.4852 18.9273 21.5724 18.885 21.6518C18.8427 21.7312 18.7847 21.8013 18.7147 21.8577Z"
     fill="white"
     id="path6"
     style="fill:#383e49;fill-opacity:1" />
</svg>
