<svg width="39" height="37" viewBox="0 0 39 37" fill="none" xmlns="http://www.w3.org/2000/svg">
<path fill-rule="evenodd" clip-rule="evenodd" d="M18.2687 0.18457C8.49043 0.18457 0.564453 8.11055 0.564453 17.8888C0.564453 27.6671 8.49043 35.5931 18.2687 35.5931C28.047 35.5931 35.973 27.6671 35.973 17.8888C35.973 8.11055 28.047 0.18457 18.2687 0.18457ZM18.2687 34.4866C9.10233 34.4866 1.67097 27.0552 1.67097 17.8888C1.67097 8.72245 9.10233 1.29109 18.2687 1.29109C27.4351 1.29109 34.8665 8.72245 34.8665 17.8888C34.8665 27.0552 27.4351 34.4866 18.2687 34.4866Z" fill="white"/>
<path fill-rule="evenodd" clip-rule="evenodd" d="M21.9977 17.5264C22.5646 17.012 23.0179 16.3849 23.3285 15.6853C23.6391 14.9856 23.8001 14.2288 23.8013 13.4632C23.8013 11.9959 23.2184 10.5887 22.1808 9.55112C21.1433 8.51356 19.736 7.93066 18.2687 7.93066C16.8014 7.93066 15.3941 8.51356 14.3566 9.55112C13.319 10.5887 12.7361 11.9959 12.7361 13.4632C12.7361 15.0765 13.4377 16.515 14.5397 17.5264C10.8905 19.0025 8.31006 22.5632 8.31006 26.7414H28.2274C28.2274 22.5632 25.647 19.0025 21.9977 17.5264ZM13.8426 13.4632C13.8422 12.7006 14.0388 11.9508 14.4134 11.2865C14.788 10.6222 15.3279 10.066 15.9808 9.67177C16.6336 9.27755 17.3772 9.0587 18.1396 9.03645C18.9019 9.0142 19.657 9.1893 20.3317 9.54477C21.0065 9.90024 21.5779 10.424 21.9906 11.0653C22.4033 11.7066 22.6434 12.4437 22.6874 13.2051C22.7314 13.9664 22.578 14.7263 22.2419 15.4109C21.9059 16.0955 21.3987 16.6816 20.7694 17.1125C20.7141 17.1502 20.6521 17.1789 20.5946 17.2143C20.4342 17.3139 20.2682 17.4069 20.0945 17.4854C20.0093 17.5242 19.9196 17.5574 19.8311 17.5906C19.6651 17.6536 19.4947 17.7067 19.3199 17.7488C19.2369 17.7687 19.155 17.7919 19.0698 17.8074C18.8098 17.8561 18.5431 17.8893 18.2687 17.8893C17.9943 17.8893 17.7276 17.8561 17.4665 17.8085C17.3813 17.793 17.2994 17.7698 17.2164 17.7499C17.0431 17.707 16.8724 17.6542 16.7052 17.5917C16.6167 17.5585 16.5282 17.5253 16.4418 17.4865C16.2694 17.4072 16.1023 17.3166 15.9417 17.2154C15.8842 17.18 15.8222 17.1513 15.7669 17.1136C15.1736 16.7074 14.6883 16.1626 14.3531 15.5265C14.0178 14.8905 13.8426 14.1823 13.8426 13.4632ZM9.49292 25.6349C9.706 23.9527 10.3976 22.3671 11.4854 21.0664C12.5733 19.7658 14.0117 18.8047 15.6297 18.2976C16.4175 18.7281 17.3071 18.9958 18.2687 18.9958C19.2303 18.9958 20.1199 18.7281 20.9077 18.2976C22.5257 18.8049 23.964 19.7659 25.0518 21.0666C26.1397 22.3672 26.8313 23.9528 27.0445 25.6349H9.49292Z" fill="white"/>
<g clip-path="url(#clip0_7_845)">
<path d="M25.0747 28.0642L25.2477 29.6208L26.8045 31.7831L26.5147 33.5053L28.8802 33.3399L35.1075 33.5994L36.5778 32.475V31.4371L36.8373 30.3128L38.3076 29.0154L37.4427 27.8046L36.3184 26.3342L36.4048 24.345L35.021 23.9125H33.6372L32.2533 22.7017L31.0425 22.4424L29.4857 24.0857L26.6167 23.6973L26.6315 24.7776L26.718 26.3343L26.1991 27.2857L25.0747 28.0642Z" fill="#4267B2"/>
<path d="M31.4906 25.7607C31.0955 25.7607 30.7043 25.8386 30.3392 25.9898C29.9742 26.141 29.6425 26.3626 29.3632 26.642C29.0838 26.9213 28.8622 27.253 28.711 27.618C28.5598 27.9831 28.4819 28.3743 28.4819 28.7694C28.4819 29.1645 28.5598 29.5557 28.711 29.9208C28.8622 30.2858 29.0838 30.6175 29.3632 30.8969C29.6425 31.1762 29.9742 31.3978 30.3392 31.549C30.7043 31.7002 31.0955 31.7781 31.4906 31.7781C32.2885 31.7781 33.0538 31.4611 33.618 30.8969C34.1823 30.3326 34.4993 29.5674 34.4993 28.7694C34.4993 27.9715 34.1823 27.2062 33.618 26.642C33.0538 26.0777 32.2885 25.7607 31.4906 25.7607ZM29.4088 28.7694C29.4088 28.2173 29.6281 27.6878 30.0186 27.2974C30.409 26.907 30.9385 26.6876 31.4906 26.6876C32.0427 26.6876 32.5722 26.907 32.9626 27.2974C33.353 27.6878 33.5724 28.2173 33.5724 28.7694C33.5724 29.3215 33.353 29.851 32.9626 30.2414C32.5722 30.6319 32.0427 30.8512 31.4906 30.8512C30.9385 30.8512 30.409 30.6319 30.0186 30.2414C29.6281 29.851 29.4088 29.3215 29.4088 28.7694Z" fill="white"/>
<path d="M33.1552 22.5998C32.6667 20.9407 30.3143 20.9407 29.8258 22.5998L29.7387 22.8955C29.7046 23.0113 29.645 23.118 29.5643 23.2078C29.4836 23.2976 29.3838 23.3682 29.2723 23.4144C29.1607 23.4606 29.0403 23.4813 28.9197 23.4749C28.7991 23.4685 28.6815 23.4352 28.5755 23.3775L28.3048 23.2292C26.7847 22.4024 25.1228 24.0652 25.9505 25.5844L26.0979 25.855C26.1557 25.9611 26.189 26.0787 26.1954 26.1992C26.2017 26.3198 26.1811 26.4403 26.1349 26.5518C26.0886 26.6633 26.0181 26.7631 25.9283 26.8438C25.8385 26.9246 25.7318 26.9841 25.6159 27.0183L25.3203 27.1054C23.6611 27.5939 23.6611 29.9463 25.3203 30.4348L25.6159 30.5219C25.7318 30.556 25.8385 30.6156 25.9283 30.6963C26.0181 30.777 26.0886 30.8768 26.1349 30.9883C26.1811 31.0999 26.2017 31.2204 26.1954 31.3409C26.189 31.4615 26.1557 31.5791 26.0979 31.6851L25.9496 31.9558C25.1228 33.4759 26.7847 35.1387 28.3048 34.3101L28.5755 34.1627C28.6815 34.1049 28.7991 34.0716 28.9197 34.0652C29.0403 34.0589 29.1607 34.0795 29.2723 34.1257C29.3838 34.172 29.4836 34.2425 29.5643 34.3323C29.645 34.4221 29.7046 34.5288 29.7387 34.6447L29.8258 34.9403C30.3143 36.5995 32.6667 36.5995 33.1552 34.9403L33.2423 34.6447C33.2765 34.5288 33.3361 34.4221 33.4168 34.3323C33.4975 34.2425 33.5973 34.172 33.7088 34.1257C33.8203 34.0795 33.9408 34.0589 34.0614 34.0652C34.1819 34.0716 34.2996 34.1049 34.4056 34.1627L34.6762 34.311C36.1963 35.1387 37.8591 33.4749 37.0305 31.9558L36.8831 31.6851C36.8254 31.5791 36.7921 31.4615 36.7857 31.3409C36.7793 31.2204 36.8 31.0999 36.8462 30.9883C36.8924 30.8768 36.963 30.777 37.0528 30.6963C37.1426 30.6156 37.2493 30.556 37.3651 30.5219L37.6608 30.4348C39.3199 29.9463 39.3199 27.5939 37.6608 27.1054L37.3651 27.0183C37.2493 26.9841 37.1426 26.9246 37.0528 26.8438C36.963 26.7631 36.8924 26.6633 36.8462 26.5518C36.8 26.4403 36.7793 26.3198 36.7857 26.1992C36.7921 26.0787 36.8254 25.9611 36.8831 25.855L37.0314 25.5844C37.8591 24.0643 36.1954 22.4024 34.6762 23.2301L34.4056 23.3775C34.2996 23.4352 34.1819 23.4685 34.0614 23.4749C33.9408 23.4813 33.8203 23.4606 33.7088 23.4144C33.5973 23.3682 33.4975 23.2976 33.4168 23.2078C33.3361 23.118 33.2765 23.0113 33.2423 22.8955L33.1552 22.5998ZM30.7147 22.8621C30.9427 22.0882 32.0383 22.0882 32.2663 22.8621L32.3535 23.1578C32.4267 23.4063 32.5546 23.6352 32.7279 23.8278C32.9011 24.0205 33.1152 24.1719 33.3546 24.271C33.5939 24.3701 33.8524 24.4143 34.1111 24.4005C34.3698 24.3868 34.6221 24.3153 34.8496 24.1913L35.1193 24.043C35.8274 23.6583 36.6023 24.4323 36.2167 25.1413L36.0693 25.412C35.9455 25.6395 35.8742 25.8918 35.8606 26.1504C35.8469 26.409 35.8913 26.6674 35.9905 26.9067C36.0897 27.1459 36.2411 27.3599 36.4338 27.533C36.6264 27.7061 36.8553 27.834 37.1037 27.9071L37.3985 27.9943C38.1724 28.2223 38.1724 29.3179 37.3985 29.5459L37.1028 29.633C36.8543 29.7062 36.6254 29.8342 36.4328 30.0074C36.2401 30.1806 36.0887 30.3948 35.9896 30.6341C35.8905 30.8735 35.8463 31.1319 35.8601 31.3906C35.8738 31.6493 35.9453 31.9016 36.0693 32.1291L36.2176 32.3988C36.6023 33.107 35.8283 33.8818 35.1193 33.4962L34.8496 33.3489C34.622 33.2249 34.3697 33.1534 34.1109 33.1397C33.8522 33.126 33.5937 33.1703 33.3543 33.2695C33.1149 33.3687 32.9008 33.5202 32.7276 33.7129C32.5544 33.9057 32.4266 34.1347 32.3535 34.3833L32.2663 34.678C32.0383 35.452 30.9427 35.452 30.7147 34.678L30.6276 34.3823C30.5543 34.134 30.4264 33.9052 30.2533 33.7127C30.0801 33.5201 29.8661 33.3688 29.6268 33.2697C29.3876 33.1706 29.1292 33.1263 28.8707 33.14C28.6121 33.1537 28.3599 33.2251 28.1324 33.3489L27.8618 33.4972C27.1536 33.8818 26.3788 33.1079 26.7644 32.3988L26.9117 32.1291C27.0359 31.9016 27.1075 31.6492 27.1214 31.3904C27.1353 31.1316 27.0911 30.873 26.9919 30.6335C26.8928 30.394 26.7414 30.1798 26.5486 30.0065C26.3559 29.8332 26.1269 29.7053 25.8783 29.6321L25.5826 29.5449C24.8086 29.3169 24.8086 28.2214 25.5826 27.9933L25.8783 27.9062C26.1265 27.8329 26.3552 27.705 26.5476 27.5319C26.74 27.3588 26.8913 27.1449 26.9904 26.9058C27.0895 26.6667 27.1338 26.4084 27.1202 26.15C27.1066 25.8915 27.0354 25.6394 26.9117 25.412L26.7634 25.1413C26.3788 24.4332 27.1527 23.6583 27.8618 24.0439L28.1324 24.1913C28.3599 24.3151 28.6121 24.3864 28.8707 24.4001C29.1292 24.4138 29.3876 24.3695 29.6268 24.2704C29.8661 24.1714 30.0801 24.02 30.2533 23.8275C30.4264 23.635 30.5543 23.4061 30.6276 23.1578L30.7147 22.8621Z" fill="white"/>
</g>
<defs>
<clipPath id="clip0_7_845">
<rect width="14.8301" height="14.8301" fill="white" transform="translate(24.0754 21.3545)"/>
</clipPath>
</defs>
</svg>
