<svg width="34" height="33" viewBox="0 0 34 33" fill="none" xmlns="http://www.w3.org/2000/svg">
<path d="M29.4657 24.0774C27.2628 24.0774 25.4367 25.7167 25.1402 27.8392H21.4711C21.1537 26.371 19.8455 25.2672 18.2836 25.2672H17.4592V22.3235L20.4717 19.3111H26.6338C26.9196 20.8438 28.2662 22.008 29.8805 22.008C30.6403 22.008 31.3822 21.7436 31.9698 21.2635C32.2292 21.0515 32.2677 20.6694 32.0557 20.4099C31.8438 20.1503 31.4616 20.1119 31.2021 20.324C30.8252 20.6319 30.3683 20.7946 29.8806 20.7946C28.7281 20.7946 27.7904 19.8569 27.7904 18.7044C27.7904 17.5518 28.7281 16.6141 29.8806 16.6141C31.0331 16.6141 31.9708 17.5518 31.9708 18.7044C31.9708 19.0395 32.2425 19.311 32.5775 19.311C32.9126 19.311 33.1842 19.0395 33.1842 18.7044C33.1842 17.0851 32.0128 15.7351 30.4731 15.4551C30.3189 13.7066 28.8471 12.3305 27.0593 12.3305H17.4593V9.15384H21.3536C21.6887 9.15384 21.9602 8.88226 21.9602 8.54716V6.58412V1.42113C21.9602 1.08603 21.6886 0.814453 21.3536 0.814453H18.1414C17.8063 0.814453 17.5347 1.08603 17.5347 1.42113C17.5347 1.75624 17.8064 2.02781 18.1414 2.02781H20.7468V5.97737H12.9584V2.02781H15.9978C16.3329 2.02781 16.6045 1.75624 16.6045 1.42113C16.6045 1.08603 16.3329 0.814453 15.9978 0.814453H12.3518C12.0167 0.814453 11.7451 1.08603 11.7451 1.42113V6.58412V8.54735C11.7451 8.88246 12.0167 9.15403 12.3518 9.15403H16.246V12.3307H6.64589C4.85798 12.3307 3.38622 13.7068 3.23208 15.4553C1.6924 15.7355 0.520996 17.0853 0.520996 18.7046C0.520996 20.5262 2.00298 22.0082 3.8246 22.0082C5.43889 22.0082 6.78555 20.844 7.07135 19.3113H9.22991C9.56502 19.3113 9.83659 19.0397 9.83659 18.7046C9.83659 18.3695 9.56495 18.0979 9.22991 18.0979H7.07135C6.82358 16.7688 5.77793 15.7175 4.45173 15.4615C4.59742 14.3806 5.52557 13.5441 6.64589 13.5441H27.0593C28.1796 13.5441 29.1077 14.3805 29.2535 15.4615C27.9273 15.7176 26.8817 16.7689 26.6338 18.0979H20.4718L17.2815 14.9077C17.1678 14.7939 17.0134 14.7301 16.8525 14.7301C16.6916 14.7301 16.5373 14.794 16.4235 14.9077L13.2334 18.0979H11.387C11.0519 18.0979 10.7803 18.3695 10.7803 18.7046C10.7803 19.0397 11.052 19.3113 11.387 19.3113H13.2334L16.2459 22.3237V25.2674H6.89754C6.56243 25.2674 6.29086 25.539 6.29086 25.8741C6.29086 26.2092 6.56249 26.4808 6.89754 26.4808H18.2837C19.4131 26.4808 20.3318 27.3996 20.3318 28.5289C20.3318 29.6583 19.413 30.5771 18.2837 30.5771H15.391C15.0559 30.5771 14.7843 30.8487 14.7843 31.1838C14.7843 31.5189 15.056 31.7904 15.391 31.7904H18.2837C19.9038 31.7904 21.2513 30.6028 21.5027 29.0527H25.1404C25.4367 31.1752 27.2629 32.8145 29.4658 32.8145C31.8746 32.8145 33.8343 30.8548 33.8343 28.4459C33.8343 26.0371 31.8745 24.0774 29.4657 24.0774ZM12.9584 7.1908H20.7468V7.94061H12.9584V7.1908ZM5.91477 18.7045C5.91477 19.857 4.97705 20.7947 3.82453 20.7947C2.67201 20.7947 1.73429 19.857 1.73429 18.7045C1.73429 17.552 2.67201 16.6142 3.82453 16.6142C4.97705 16.6142 5.91477 17.5519 5.91477 18.7045ZM16.8526 16.1946L19.3625 18.7045L16.8526 21.2143L14.3427 18.7045L16.8526 16.1946ZM29.4657 31.601C27.726 31.601 26.3106 30.1856 26.3106 28.4458C26.3106 26.706 27.726 25.2906 29.4657 25.2906C31.2054 25.2906 32.6208 26.706 32.6208 28.4458C32.6208 30.1857 31.2054 31.601 29.4657 31.601Z" fill="white"/>
<path d="M13.0855 30.5772H3.52591C2.39654 30.5772 1.47777 29.6585 1.47777 28.5291C1.47777 27.3997 2.39661 26.4809 3.52591 26.4809H4.59208C4.92718 26.4809 5.19876 26.2094 5.19876 25.8743C5.19876 25.5392 4.92712 25.2676 4.59208 25.2676H3.52591C1.72751 25.2676 0.264404 26.7307 0.264404 28.5291C0.264404 30.3275 1.72751 31.7906 3.52591 31.7906H13.0855C13.4206 31.7906 13.6922 31.519 13.6922 31.1839C13.6922 30.8489 13.4206 30.5772 13.0855 30.5772Z" fill="white"/>
<path d="M30.4642 27.1416L29.0088 28.597L28.4285 28.0167C28.1916 27.7798 27.8074 27.7798 27.5705 28.0167C27.3336 28.2536 27.3336 28.6378 27.5705 28.8747L28.5799 29.884C28.6937 29.9977 28.848 30.0616 29.0089 30.0616C29.1698 30.0616 29.3241 29.9977 29.4379 29.8839L31.3222 27.9995C31.5592 27.7626 31.5592 27.3784 31.3222 27.1416C31.0851 26.9047 30.701 26.9046 30.4642 27.1416Z" fill="white"/>
<path d="M4.33911 28.4455C4.33911 28.7807 4.61075 29.0522 4.94579 29.0522H16.8636C17.1987 29.0522 17.4703 28.7807 17.4703 28.4455C17.4703 28.1104 17.1987 27.8389 16.8636 27.8389H4.94586C4.61075 27.8388 4.33911 28.1104 4.33911 28.4455Z" fill="white"/>
</svg>
